<svg xmlns="http://www.w3.org/2000/svg" viewBox="0 0 1024 820" width="1024" height="820">
	<style>
		tspan { white-space:pre }
		.shp0 { fill: #217aff;stroke: #ffffff;stroke-width: 5.96 } 
		.shp1 { fill: #8c95ac } 
		.txt2 { font-size: 110px;fill: #ffffff;font-family: "' Microsoft Ya Hei Light'";font-weight: 300 } 
		.txt3 { font-size: 36px;fill: #fdad00;font-family: "' Microsoft Ya Hei'" } 
		.shp4 { fill: #000211 } 
		.shp5 { fill: #00ccff } 
		.shp6 { fill: #000000 } 
		.shp7 { fill: #ff00c4 } 
		.shp8 { fill: #fdb300 } 
		.shp9 { fill: #ea6c00 } 
		.shp10 { fill: #fdad00 } 
		.shp11 { fill: #fdd231 } 
		.shp12 { fill: #feeeb7 } 
		.shp13 { fill: #2e3436 } 
		.shp14 { fill: #888a85 } 
		.shp15 { fill: #2e3436;stroke: #000000;stroke-width: 2.11 } 
		.shp16 { fill: #ffffff } 
		.shp17 { fill: #673907 } 
		.shp18 { fill: none;stroke: #ffffff;stroke-linecap:round;stroke-linejoin:round;stroke-width: 2.11 } 
		.shp19 { fill: #706d6d } 
		.shp20 { fill: #bfbfbf } 
		.shp21 { fill: #414141 } 
		.shp22 { fill: #e8e6e6 } 
		.shp23 { fill: #1c1c1c } 
		.shp24 { fill: #686868 } 
		.shp25 { fill: #da0100 } 
	</style>
	<path id="Layer" class="shp0" d="M3,43.65v732.67c0.04,22.49 18.31,40.69 40.8,40.65h936.38c22.53,0 40.8,-18.2 39.82,-46.65v-732.67c0.94,-16.49 -17.33,-34.69 -39.82,-34.65h-936.38c-22.49,-0.04 -40.76,18.16 -40.8,40.65z" />
	<g id="Layer">
		<g id="Layer">
			<path id="Layer" class="shp1" d="M612.68,174.56h14.54v-5.85h-14.54v-11.02h-6.15v11.02h-13.76v5.85h13.76v15.51h-16.1v5.85h39.61v-5.85h-17.37z" />
			<path id="Layer" class="shp1" d="M601.85,140.03l-6.15,-0.68c-0.88,2.93 -1.85,5.85 -3.12,8.68h-17.95v5.85h15.12c-4.29,7.71 -10.05,14.63 -17.37,20.68l3.81,4.88c2.05,-1.76 4,-3.51 5.95,-5.46v24.29h5.95v-30.93c3.32,-4.19 6.15,-8.68 8.59,-13.46h33.56v-5.85h-30.93c0.78,-2.73 1.66,-5.37 2.54,-8z" />
			<path id="Layer" class="shp1" d="M650.73,164.81c-2.93,5.07 -5.27,8.68 -7.22,10.83c-0.78,0.68 -1.66,1.27 -2.73,1.66l1.66,5.46c6.05,-0.78 12.49,-2.34 19.32,-4.59v-5.37c-4.2,1.37 -8.2,2.54 -12.2,3.41c3.51,-4.59 7.8,-11.71 12.98,-21.56l-5.37,-2.05c-1.17,2.44 -2.34,4.68 -3.51,6.83c-2.24,0.29 -4.49,0.59 -6.73,0.78c3.02,-4.68 6.05,-10.93 9.07,-18.54l-5.76,-2.24c-2.24,6.93 -4.88,13.27 -7.9,19.02c-0.78,1.07 -1.56,1.85 -2.44,2.24l1.46,5.46c3.32,-0.49 6.34,-0.97 9.37,-1.36z" />
			<path id="Layer" class="shp1" d="M692.19,147.05c-1.66,-2.05 -4,-4.59 -7.02,-7.41l-4.59,2.93c2.93,2.83 5.27,5.46 6.93,7.81z" />
			<path id="Layer" class="shp1" d="M662.44,184.61c-6.15,2.24 -13.46,4.1 -21.85,5.46l0.78,5.85c7.9,-1.46 14.93,-3.32 21.07,-5.76v-5.56z" />
			<path id="Layer" class="shp1" d="M689.26,190.85c-1.56,0 -3.22,-1.56 -5.07,-4.39c3.61,-3.32 7.02,-7.22 10.15,-11.81l-4.68,-3.22c-2.34,3.51 -4.98,6.73 -7.9,9.46c-0.78,-2.34 -1.56,-4.98 -2.05,-7.9l-0.29,-1.85l16.29,-2.54l-0.88,-5.66l-16.1,2.54c-0.29,-2.24 -0.39,-4.59 -0.49,-7.12l15.8,-2.24l-0.78,-5.56l-15.02,2.05v-12.78h-5.95v13.56l-9.17,1.37l0.88,5.56l8.39,-1.17c0.1,2.54 0.29,4.88 0.49,7.22l-10.83,1.66l0.78,5.66l10.83,-1.66c0.29,1.37 0.49,2.73 0.78,4.1c0.78,3.12 1.66,6.05 2.73,8.68c-4.39,3.32 -9.46,5.76 -15.12,7.61l3.51,4.78c5.07,-1.56 9.85,-3.9 14.34,-7.22c0.29,0.49 0.68,1.07 1.17,1.66c2.83,3.81 5.85,5.76 8.98,5.76c3.51,0 6.15,-4.1 8.1,-12.19l-5.07,-3.41c-1.17,6.05 -2.34,9.07 -3.81,9.07z" />
			<path id="Layer" class="shp1" d="M751.22,158.27c0,10.34 -6.15,15.51 -18.24,15.51h-13.17v19.71h-7.71v-50.63h20.98c12.1,0 18.15,5.17 18.15,15.41zM743.51,158.27c0,-3.12 -0.98,-5.36 -2.73,-6.63c-1.76,-1.46 -4.49,-2.15 -8.29,-2.15h-12.59v17.76h12.59c3.81,0 6.63,-0.68 8.39,-2.15c1.66,-1.46 2.63,-3.71 2.63,-6.83z" />
			<path id="Layer" class="shp1" d="M793.46,169.1c-1.95,-1.17 -6.44,-2.83 -13.27,-4.98c-4.78,-1.46 -7.71,-2.44 -8.78,-3.12c-2.54,-1.37 -3.8,-3.12 -3.8,-5.37c0,-2.54 1.07,-4.39 3.22,-5.56c1.76,-0.98 4.29,-1.46 7.71,-1.46c3.81,0 6.63,0.68 8.68,2.24c1.95,1.46 3.22,3.81 4,7.12h7.71c-0.49,-5.56 -2.44,-9.56 -6.05,-12.19c-3.32,-2.54 -7.9,-3.81 -13.85,-3.81c-5.37,0 -9.85,1.17 -13.37,3.61c-3.8,2.54 -5.56,6.05 -5.56,10.54c0,4.39 1.95,7.81 5.85,10.15c1.56,0.88 5.37,2.24 11.61,4.19c5.56,1.66 8.98,2.83 10.05,3.41c3.22,1.66 4.78,3.81 4.78,6.63c0,2.24 -1.17,4 -3.41,5.37c-2.24,1.27 -5.37,1.95 -9.17,1.95c-4.29,0 -7.41,-0.78 -9.46,-2.34c-2.24,-1.66 -3.71,-4.59 -4.29,-8.59h-7.71c0.39,6.34 2.73,11.02 6.93,14.05c3.51,2.44 8.29,3.71 14.44,3.71c6.34,0 11.32,-1.27 14.93,-3.81c3.51,-2.63 5.37,-6.15 5.37,-10.73c0,-4.78 -2.24,-8.49 -6.54,-11.02z" />
			<path id="Layer" class="shp1" d="M527.98,211.44l6.95,-6v-78.83l-6.95,6z" />
		</g>
	</g>
	<text id="鲁虺软件 " style="transform: matrix(1,0,0,1,67.83,211.439)" >
		<tspan x="0" y="0" class="txt2">鲁虺软件</tspan>
	</text>
	<text id="HTML5版" style="transform: matrix(1,0,0,1,825.146,60.341)" >
		<tspan x="0" y="0" class="txt3">HTML5版</tspan>
	</text>
	<path id="Layer" class="shp4" d="M82.44,680.03v50.73c0,4.29 3.51,7.8 7.81,7.8h42.93c4.29,0 7.81,-3.51 7.81,-7.8v-50.73c0,-4.29 -3.51,-7.81 -7.81,-7.81h-42.93c-4.29,0 -7.81,3.51 -7.81,7.81z" />
	<path id="Layer" class="shp5" d="M133.17,672.22c4.29,0 7.81,3.51 7.81,7.81v50.73c0,4.29 -3.51,7.8 -7.81,7.8h-42.93c-4.29,0 -7.81,-3.51 -7.81,-7.8v-10.44h-8.39c-3.32,0 -6.05,-2.73 -6.05,-6.05v-16.2c0,-3.32 2.73,-6.05 6.05,-6.05h8.39v-12c0,-4.29 3.51,-7.81 7.81,-7.81zM88.49,733h46.83v-54.63h-46.83v13.66h25.17c3.32,0 6.05,2.73 6.05,6.05v16.2c0,3.32 -2.73,6.05 -6.05,6.05h-25.17z" />
	<path id="Layer" class="shp6" d="M86.44,702.76c0,1.66 -0.49,2.93 -1.56,3.8c-1.07,0.88 -2.54,1.27 -4.39,1.27h-1.37v5.46h-3.32v-15.32h4.88c1.85,0 3.22,0.39 4.2,1.17c1.07,0.88 1.56,2.05 1.56,3.61zM79.12,705.29h1.07c0.98,0 1.76,-0.2 2.24,-0.59c0.49,-0.39 0.78,-0.98 0.78,-1.76c0,-0.78 -0.19,-1.37 -0.58,-1.66c-0.39,-0.39 -1.07,-0.59 -1.95,-0.59h-1.56zM96.88,712.32c-0.97,0.78 -2.34,1.17 -4.1,1.17c-1.46,0 -3.02,-0.29 -4.29,-0.98v-2.93c1.07,0.49 1.95,0.78 2.63,0.98c0.68,0.2 1.37,0.29 1.95,0.29c0.68,0 1.27,-0.1 1.66,-0.39c0.39,-0.29 0.58,-0.68 0.58,-1.17c0,-0.29 -0.1,-0.59 -0.29,-0.78c-0.19,-0.29 -0.49,-0.49 -0.78,-0.68c-0.29,-0.2 -0.98,-0.59 -1.95,-1.07c-0.78,-0.29 -1.46,-0.78 -2.15,-1.27c-0.49,-0.39 -0.88,-0.88 -1.17,-1.46c-0.29,-0.59 -0.39,-1.27 -0.39,-1.85c0,-1.37 0.49,-2.44 1.37,-3.22c1.07,-0.78 2.44,-1.27 3.81,-1.17c0.78,0 1.56,0.1 2.24,0.29c0.68,0.2 1.46,0.49 2.24,0.78l-1.07,2.54c-0.78,-0.29 -1.46,-0.59 -2.05,-0.68c-0.49,-0.1 -1.07,-0.2 -1.56,-0.2c-0.58,0 -1.07,0.2 -1.37,0.39c-0.29,0.19 -0.49,0.68 -0.49,1.17c0,0.29 0.1,0.49 0.19,0.78c0.1,0.19 0.29,0.39 0.58,0.59c0.29,0.2 0.98,0.59 2.05,1.07c1.17,0.49 2.15,1.17 2.93,2.05c0.68,0.68 0.88,1.47 0.88,2.54c0,1.37 -0.49,2.44 -1.46,3.22zM111.71,711.24c-1.46,1.37 -3.51,2.05 -6.24,2.05h-4.29v-15.32h4.78c2.54,0 4.49,0.68 5.85,1.95c1.36,1.36 2.05,3.22 2.05,5.56c0,2.54 -0.68,4.49 -2.15,5.76zM110.44,705.59c0,-3.32 -1.46,-4.98 -4.39,-4.98h-1.76v9.95h1.37c3.22,0.1 4.78,-1.56 4.78,-4.98z" />
	<path id="Layer" class="shp4" d="M234.63,680.03v50.73c0,4.29 3.51,7.8 7.81,7.8h42.93c4.29,0 7.81,-3.51 7.81,-7.8v-50.73c0,-4.29 -3.51,-7.81 -7.81,-7.81h-42.93c-4.29,0 -7.81,3.51 -7.81,7.81z" />
	<path id="Layer" class="shp7" d="M285.37,672.22c4.29,0 7.81,3.51 7.81,7.81v50.73c0,4.29 -3.51,7.8 -7.81,7.8h-42.93c-4.29,0 -7.81,-3.51 -7.81,-7.8v-10.44h-8.39c-3.32,0 -6.05,-2.73 -6.05,-6.05v-16.2c0,-3.32 2.73,-6.05 6.05,-6.05h8.39v-12c0,-4.29 3.51,-7.81 7.81,-7.81zM240.68,733h46.83v-54.63h-46.83v13.66h25.17c3.32,0 6.05,2.73 6.05,6.05v16.2c0,3.32 -2.73,6.05 -6.05,6.05h-25.17z" />
	<path id="Layer" class="shp6" d="M240.78,705.59l5.17,7.71h-3.71l-3.51,-5.76l-3.51,5.76h-3.51l5.07,-7.9l-4.78,-7.41h3.61l3.32,5.56l3.22,-5.56h3.51zM258.44,711.24c-1.46,1.37 -3.51,2.05 -6.24,2.05h-4.29v-15.32h4.78c2.54,0 4.49,0.68 5.85,1.95c1.37,1.36 2.05,3.22 2.05,5.56c0,2.54 -0.68,4.49 -2.15,5.76zM252.78,700.61h-1.76v9.95h1.37c3.22,0.1 4.78,-1.56 4.78,-4.98c0,-3.32 -1.46,-4.98 -4.39,-4.98z" />
	<path id="Layer" class="shp8" d="M376.39,699.73l37.07,43.22l37.07,-43.22l-16.19,-21.76l-20.88,-2.24l-20.88,2.24z" />
	<path id="Layer" class="shp9" d="M376.39,699.73l37.07,43.22l-22.05,-43.22zM435.61,699.73l-22.05,43.22l37.07,-43.22z" />
	<path id="Layer" class="shp10" d="M413.56,742.95l22.05,-43.22h-44.19z" />
	<g id="Layer">
		<path id="Layer" class="shp11" d="M413.56,675.73l-20.88,2.24l-1.17,21.76zM435.61,699.73l-1.17,-21.76l-20.88,-2.24z" />
		<path id="Layer" class="shp10" d="M450.63,699.73l-16.19,-21.76l1.17,21.76zM391.41,699.73l1.17,-21.76l-16.19,21.76z" />
		<path id="Layer" class="shp12" d="M413.56,675.73l-22.05,23.9h44.19z" />
	</g>
	<g id="Layer">
		<g id="Layer">
			<path id="Layer" class="shp6" d="M598.93,724.41c0,-5.02 -9.38,-9.07 -20.98,-9.07c-11.6,0 -20.98,4.06 -20.98,9.07c0,5.02 9.38,9.07 20.98,9.07c11.6,0 20.98,-4.06 20.98,-9.07z" />
		</g>
		<g id="Layer">
			<path id="Layer" class="shp13" d="M579.6,734.33c-18.46,0 -38.93,-13.5 -40.34,-21.34l-0.17,-0.93l0.91,-0.27c5.38,-1.58 8.94,-3.93 10.31,-6.78c1.18,-2.47 0.37,-4.49 0.34,-4.58l-0.08,-0.2v-0.22l0.2,-15.71l2,-0.45c0.23,0.46 5.71,11.32 18.37,11.32l0.47,0c26.52,-0.71 32.61,-13.43 33.85,-17.31c0.58,-1.83 1.49,-2.22 2.15,-2.22c0.39,0 1.7,0.19 2.04,2.58c2.45,22.18 -0.5,38.09 -8.75,47.29c-5.24,5.85 -12.4,8.82 -21.29,8.82zM541.59,713.51c2.57,6.57 20.53,18.71 38,18.71c8.26,0 14.89,-2.73 19.72,-8.12c7.83,-8.74 10.6,-24.09 8.22,-45.62c-0.01,-0.06 -0.02,-0.12 -0.03,-0.18c-0.02,0.06 -0.04,0.12 -0.06,0.19c-1.34,4.22 -7.88,18.03 -35.81,18.78c-0.18,0 -0.35,0.01 -0.52,0.01c-9.66,0 -15.52,-5.71 -18.3,-9.42l-0.15,11.98c0.26,0.75 0.89,3.2 -0.43,6.02c-1.55,3.29 -5.13,5.86 -10.64,7.65z" />
		</g>
		<g id="Layer">
			<path id="Layer" class="shp14" d="M558.54,712.1c-1.7,0 -3.34,-0.46 -4.75,-1.33c-2.16,-1.26 -3.71,-3.3 -4.36,-5.71c-0.65,-2.42 -0.3,-4.96 0.98,-7.13c1.69,-2.89 4.81,-4.69 8.13,-4.69c1.65,0 3.29,0.45 4.73,1.29c2.8,1.62 4.62,4.81 4.62,8.13c0,5.21 -4.19,9.44 -9.35,9.44zM558.54,695.35c-2.57,0 -4.99,1.4 -6.31,3.65c-0.99,1.69 -1.26,3.65 -0.76,5.52c0.5,1.88 1.71,3.45 3.4,4.45c1.1,0.67 2.36,1.02 3.66,1.02c3.99,0 7.24,-3.29 7.24,-7.34c0,-2.58 -1.4,-5.05 -3.57,-6.31c-1.12,-0.66 -2.39,-1 -3.67,-1z" />
		</g>
		<g id="Layer">
			<path id="Layer" class="shp6" d="M546.12,723.54c-4.03,0 -8.35,-2.57 -11.28,-6.71c-4.38,-6.2 -4.32,-13.61 0.14,-16.87c1.32,-0.96 2.94,-1.47 4.69,-1.47c4.02,0 8.36,2.56 11.33,6.68c4.45,6.15 4.39,13.57 -0.14,16.88c-1.33,0.97 -2.97,1.49 -4.74,1.49zM539.68,700.59c-1.32,0 -2.48,0.36 -3.44,1.06c-3.46,2.53 -3.31,8.79 0.34,13.95c2.5,3.53 6.25,5.82 9.56,5.82c1.34,0 2.52,-0.36 3.5,-1.08c3.52,-2.58 3.37,-8.83 -0.33,-13.94c-2.54,-3.53 -6.31,-5.81 -9.62,-5.81z" />
		</g>
		<path id="Layer" class="shp15" d="M560.49,699.93c-2.15,0 -4,1.85 -4,4c0,2.15 1.85,4 4,4c2.15,0 4,-1.76 4,-4c0,-2.24 -1.85,-4 -4,-4z" />
		<path id="Layer" class="shp16" d="M540.58,702.66c-1.07,-0.78 -2.54,-0.78 -3.61,0c-1.17,0.78 -1.85,2.24 -1.85,3.8c0,1.46 0.68,2.93 1.85,3.8c1.07,0.78 2.54,0.78 3.61,0c1.17,-0.78 1.85,-2.24 1.85,-3.8c0,-1.46 -0.68,-2.93 -1.85,-3.8zM558.83,699.24c-1.56,0 -2.83,1.27 -2.83,2.83v0c0,1.56 1.27,2.83 2.83,2.83c1.56,0 2.83,-1.27 2.83,-2.83c0,-1.56 -1.17,-2.83 -2.83,-2.83z" />
		<g id="Layer">
			<path id="Layer" class="shp14" d="M575.8,714.45c-1.88,0 -3.72,-0.5 -5.49,-1.5c-5.27,-3.08 -7.03,-9.62 -4.01,-14.9c1.97,-3.37 5.59,-5.46 9.46,-5.46c1.89,0 3.78,0.5 5.45,1.46c3.4,2.08 5.41,5.63 5.41,9.5c0,6.01 -4.85,10.91 -10.81,10.91zM575.76,694.69c-3.12,0 -6.04,1.69 -7.63,4.4c-2.43,4.26 -1.02,9.54 3.23,12.02c1.44,0.81 2.94,1.22 4.44,1.22c4.8,0 8.7,-3.95 8.7,-8.8c0,-3.13 -1.64,-6.01 -4.37,-7.69c-1.32,-0.76 -2.84,-1.16 -4.37,-1.16z" />
		</g>
		<path id="Layer" class="shp15" d="M578.05,700.32c-2.54,0 -4.68,2.05 -4.68,4.68v0c0,2.63 2.14,4.78 4.78,4.78c2.54,0 4.68,-2.15 4.68,-4.78c0,-2.63 -2.15,-4.68 -4.78,-4.68z" />
		<path id="Layer" class="shp16" d="M576.2,699.54c-1.85,0 -3.32,1.46 -3.32,3.32v0c0,1.85 1.46,3.32 3.32,3.32c1.85,0 3.32,-1.46 3.32,-3.32c0,-1.85 -1.46,-3.32 -3.32,-3.32z" />
		<g id="Layer">
			<path id="Layer" class="shp17" d="M606.3,734.16l-0.83,-0.24c-8.56,-2.46 -19.56,-10.26 -20.03,-10.59l-0.08,-0.07c-1.01,-0.89 -1.42,-2.12 -1.04,-3.14c0.47,-1.24 1.97,-1.71 3.57,-0.98c1.21,0.36 13.47,4.05 20.44,9.11l0.73,0.53zM586.71,721.64c0.76,0.54 10.68,7.47 18.51,10l1.13,-2.2c-7.03,-4.75 -19.01,-8.26 -19.13,-8.3l-0.16,-0.06c-0.64,-0.31 -0.79,-0.18 -0.8,-0.18c0,0.04 0.05,0.38 0.45,0.75z" />
		</g>
		<g id="Layer">
			<path id="Layer" class="shp14" d="M615.4,737.74l-10.03,-3.64l-0.19,-0.19l-1.26,0.42l-0.33,-1c-0.66,-2 1.28,-5.23 2.81,-6.12l1.12,-0.65l0.53,1.5l0.23,0.03l8.85,5.68zM606.53,732.28l7.73,2.8l0.22,-0.51l-6.95,-4.46l-0.98,-0.14c-0.33,0.47 -0.63,1.03 -0.82,1.54l0.02,-0.01z" />
		</g>
		<path id="Layer" class="shp18" d="M614.93,734.37l-5.27,-2.24" />
		<path id="Layer" class="shp16" d="M606.93,729.59c-0.49,0.58 -0.49,1.46 0.1,2.05c0.58,0.49 1.46,0.49 2.05,-0.1c0.49,-0.58 0.49,-1.46 -0.1,-2.05c-0.39,-0.29 -0.98,-0.49 -1.46,-0.29c-0.29,0 -0.49,0.19 -0.58,0.39z" />
	</g>
	<g id="Layer">
		<path id="Layer" class="shp19" d="M757.46,670.56h-28.68c-3.8,0 -6.83,3.02 -6.83,6.83v0v2.24h42.44v-2.24c-0.1,-3.8 -3.12,-6.83 -6.93,-6.83v0z" />
		<path id="Layer" class="shp20" d="M783.81,679.73h-81.37c-4.49,0 -8.1,3.61 -8.1,8.1v41.46c0,4.49 3.61,8.1 8.1,8.1h81.37c4.49,0 8.1,-3.61 8.1,-8.1v-41.46c0,-4.49 -3.61,-8.1 -8.1,-8.1z" />
		<path id="Layer" class="shp21" d="M791.9,688.81h-97.56v39.41h97.56z" />
		<path id="Layer" class="shp22" d="M743.12,682.17c-14.54,0 -26.44,11.81 -26.44,26.34c0,14.54 11.8,26.44 26.44,26.44v0c14.54,0 26.44,-11.81 26.34,-26.44c0,-14.54 -11.8,-26.34 -26.34,-26.34z" />
		<path id="Layer" class="shp23" d="M743.12,689.88c-10.34,0 -18.73,8.39 -18.73,18.73c0,10.34 8.39,18.73 18.73,18.73c10.34,0 18.73,-8.39 18.73,-18.73c0,-10.34 -8.39,-18.73 -18.73,-18.73z" />
		<path id="Layer" class="shp24" d="M735.42,695.24c-3.02,-0.1 -5.66,2.24 -5.76,5.27c-0.1,3.02 2.24,5.66 5.27,5.76c0.2,0 0.29,0 0.49,0c3.02,-0.1 5.46,-2.73 5.27,-5.76c-0.1,-2.83 -2.34,-5.17 -5.27,-5.27z" />
		<path id="Layer" class="shp25" d="M785.85,690.56c-1.27,0 -2.34,1.07 -2.34,2.34c0,1.27 1.07,2.34 2.34,2.34c1.27,0 2.34,-1.07 2.34,-2.34c0,-1.27 -1.07,-2.34 -2.34,-2.34z" />
	</g>
	<g id="Layer">
		<path id="Layer" class="shp6" d="M856.29,685v48.98c0,5.37 4.49,9.76 9.95,9.76h79.41c5.46,0 9.85,-4.39 9.95,-9.76v0v-48.98c0,-5.37 -4.49,-9.76 -9.95,-9.76h-79.41c-5.46,-0.1 -9.95,4.29 -9.95,9.76z" />
		<path id="Layer" class="shp16" d="M865.95,692.22c-0.68,-0.59 -1.17,-1.46 -1.37,-2.63l2.54,-0.39c0.1,0.59 0.29,1.07 0.59,1.37c0.29,0.29 0.68,0.49 1.17,0.49c0.49,0 0.88,-0.19 1.17,-0.49c0.29,-0.29 0.39,-0.78 0.39,-1.46v-6.34h-2.44v-1.95h4.98v8.29c0,1.27 -0.39,2.24 -1.07,2.93c-0.78,0.68 -1.85,1.07 -3.02,0.98c-1.07,0.1 -2.05,-0.2 -2.93,-0.78zM885.07,686.56c-0.39,0.59 -0.88,1.07 -1.56,1.46c-0.68,0.29 -1.46,0.49 -2.44,0.49h-3.02v4.29h-2.54v-12.1h5.56c1.46,0 2.63,0.29 3.41,0.98c0.68,0.78 1.17,1.76 1.07,2.83c0,0.78 -0.19,1.46 -0.49,2.05zM883.02,684.61c0,-1.27 -0.78,-1.95 -2.24,-1.95h-2.63v3.9h2.73c0.68,0 1.27,-0.2 1.66,-0.49c0.29,-0.29 0.49,-0.88 0.49,-1.46zM895.22,690.76c0.59,-0.2 1.07,-0.49 1.46,-0.78v-1.66h-3.02v-1.85h5.37v4.49c-0.68,0.68 -1.56,1.27 -2.54,1.56c-1.07,0.39 -2.15,0.59 -3.32,0.59c-1.95,0 -3.51,-0.59 -4.59,-1.66c-1.07,-1.07 -1.66,-2.63 -1.66,-4.68c0,-1.95 0.49,-3.51 1.66,-4.59c1.17,-1.07 2.63,-1.56 4.68,-1.56c2.93,0 4.68,1.07 5.46,3.12l-2.34,0.68c-0.19,-0.59 -0.68,-1.07 -1.17,-1.37c-0.59,-0.29 -1.27,-0.49 -1.95,-0.49c-1.17,0 -2.15,0.39 -2.73,1.07c-0.59,0.68 -0.98,1.76 -0.98,3.12c0,1.37 0.29,2.44 0.98,3.22c0.58,0.68 1.46,1.07 2.73,1.07c0.68,0 1.27,-0.1 1.95,-0.29zM920.88,686.56c-0.39,0.59 -0.88,1.07 -1.56,1.46c-0.68,0.29 -1.46,0.49 -2.44,0.49h-3.02v4.29h-2.54v-12.1h5.56c1.46,0 2.63,0.29 3.41,0.98c0.68,0.78 1.07,1.76 1.07,2.83c0,0.78 -0.2,1.46 -0.49,2.05zM918.73,684.61c0,-1.27 -0.78,-1.95 -2.24,-1.95h-2.63v3.9h2.73c0.68,0 1.27,-0.2 1.66,-0.49c0.29,-0.29 0.49,-0.88 0.49,-1.46zM930.63,692.81l-5.37,-9.37c0.1,0.88 0.2,1.66 0.2,2.15v7.12h-2.24v-12.1h2.93l5.46,9.46c-0.1,-0.88 -0.19,-1.66 -0.19,-2.34v-7.02h2.24v12.1zM943.81,690.76c0.59,-0.2 1.07,-0.49 1.46,-0.78v-1.66h-3.02v-1.85h5.37v4.49c-0.68,0.68 -1.56,1.27 -2.54,1.56c-1.07,0.39 -2.15,0.59 -3.32,0.59c-1.95,0 -3.51,-0.59 -4.59,-1.66c-1.07,-1.07 -1.66,-2.63 -1.66,-4.68c0,-1.95 0.49,-3.51 1.66,-4.59c1.17,-1.07 2.63,-1.56 4.68,-1.56c2.93,0 4.68,1.07 5.46,3.12l-2.34,0.68c-0.2,-0.59 -0.68,-1.07 -1.17,-1.37c-0.59,-0.29 -1.27,-0.49 -1.95,-0.49c-1.17,0 -2.15,0.39 -2.73,1.07c-0.59,0.68 -0.98,1.76 -0.98,3.12c0,1.37 0.29,2.44 0.98,3.22c0.68,0.68 1.56,1.07 2.73,1.07c0.68,0 1.27,-0.1 1.95,-0.29zM874.34,709.39c0.59,-0.2 1.07,-0.49 1.46,-0.78v-1.66h-3.02v-1.85h5.37v4.49c-0.68,0.68 -1.56,1.27 -2.54,1.56c-1.07,0.39 -2.15,0.59 -3.32,0.59c-1.95,0 -3.51,-0.59 -4.59,-1.66c-1.07,-1.07 -1.66,-2.63 -1.66,-4.68c0,-1.95 0.49,-3.51 1.66,-4.59c1.17,-1.07 2.63,-1.56 4.68,-1.56c2.93,0 4.68,1.07 5.46,3.12l-2.34,0.68c-0.19,-0.59 -0.68,-1.07 -1.17,-1.37c-0.59,-0.29 -1.27,-0.49 -1.95,-0.49c-1.17,0 -2.15,0.39 -2.73,1.07c-0.59,0.68 -0.98,1.76 -0.98,3.12c0,1.37 0.29,2.44 0.98,3.22c0.58,0.68 1.56,0.97 2.73,1.07c0.68,0 1.27,-0.1 1.95,-0.29zM883.02,711.44h-2.54v-12.1h2.54zM887.9,701.29v3.71h6.34v1.95h-6.34v4.49h-2.54v-12.1h9.07v1.95zM920.78,701.29h-4v10.15h-2.54v-10.15h-4v-1.95h10.54zM924.68,711.44h-2.54v-12.1h2.54zM936.2,701.29h-6.54v3.71h6.34v1.95h-6.34v4.49h-2.54v-12.1h9.07zM947.12,701.29h-6.54v3.71h6.34v1.95h-6.34v4.49h-2.54v-12.1h9.07zM874.73,729.29c-0.88,0.59 -2.15,0.98 -3.9,0.98c-1.27,0.1 -2.54,-0.2 -3.71,-0.78c-0.88,-0.59 -1.56,-1.46 -1.76,-2.54l2.44,-0.39c0.2,0.68 0.49,1.07 0.98,1.37c0.49,0.29 1.17,0.39 2.05,0.39c1.76,0 2.73,-0.49 2.73,-1.66c0,-0.29 -0.1,-0.59 -0.29,-0.88c-0.2,-0.29 -0.59,-0.39 -0.88,-0.59c-0.68,-0.19 -1.46,-0.39 -2.15,-0.59c-0.88,-0.2 -1.56,-0.39 -1.95,-0.49c-0.39,-0.1 -0.68,-0.29 -0.98,-0.49c-0.59,-0.29 -0.98,-0.88 -1.17,-1.46c-0.1,-0.39 -0.2,-0.78 -0.2,-1.17c0,-1.07 0.39,-1.95 1.27,-2.54c0.88,-0.59 2.05,-0.88 3.61,-0.88c1.56,0 2.63,0.2 3.41,0.68c0.78,0.49 1.37,1.37 1.46,2.34l-2.54,0.29c-0.1,-0.49 -0.39,-0.88 -0.78,-1.17c-0.39,-0.29 -0.98,-0.39 -1.66,-0.39c-1.56,0 -2.34,0.49 -2.34,1.46c0,0.29 0.1,0.59 0.2,0.78c0.2,0.2 0.39,0.39 0.78,0.49c0.29,0.1 0.98,0.29 1.95,0.49c1.17,0.2 2.05,0.49 2.54,0.68c0.49,0.2 0.88,0.49 1.17,0.78c0.29,0.29 0.49,0.59 0.68,0.98c0.29,0.58 0.39,1.07 0.39,1.56c0,1.17 -0.49,2.15 -1.37,2.73zM888.59,717.98l-4.49,12.1h-2.63l-4.59,-12.1h2.73l2.54,7.8c0.19,0.49 0.39,1.27 0.68,2.24l0.2,-0.78l0.49,-1.56l2.54,-7.8zM897.66,727.93c0.59,-0.2 1.07,-0.49 1.46,-0.78v-1.66h-3.02v-1.85h5.37v4.49c-0.68,0.68 -1.56,1.27 -2.54,1.56c-1.07,0.39 -2.15,0.59 -3.32,0.59c-1.95,0 -3.51,-0.59 -4.59,-1.66c-1.07,-1.07 -1.66,-2.63 -1.66,-4.68c0,-1.95 0.49,-3.51 1.66,-4.59c1.17,-1.07 2.63,-1.56 4.68,-1.56c2.93,0 4.68,1.07 5.46,3.12l-2.34,0.68c-0.2,-0.59 -0.68,-1.07 -1.17,-1.37c-0.59,-0.29 -1.27,-0.49 -1.95,-0.49c-1.17,0 -2.15,0.39 -2.73,1.07c-0.59,0.68 -0.98,1.76 -0.98,3.12c0,1.37 0.29,2.44 0.98,3.22c0.68,0.68 1.56,1.07 2.73,1.07c0.68,0 1.27,-0.1 1.95,-0.29zM923.32,723.83c-0.39,0.59 -0.88,1.07 -1.56,1.46c-0.68,0.29 -1.46,0.49 -2.44,0.49h-3.02v4.29h-2.54v-12.1h5.56c1.46,0 2.63,0.29 3.41,0.98c0.68,0.68 1.17,1.75 1.07,2.83c0,0.78 -0.2,1.46 -0.49,2.05zM921.27,721.78c0,-1.27 -0.78,-1.95 -2.24,-1.95h-2.63v3.9h2.73c0.68,0 1.27,-0.2 1.66,-0.49c0.29,-0.29 0.49,-0.78 0.49,-1.46zM935.81,727.24c-0.49,0.88 -1.17,1.66 -2.15,2.15c-0.88,0.49 -1.95,0.78 -3.12,0.78h-4.98v-12.1h4.49c2.05,0 3.71,0.49 4.78,1.56c1.17,0.88 1.76,2.34 1.76,4.29c0,1.27 -0.29,2.34 -0.78,3.32zM933.95,723.93c0,-1.27 -0.29,-2.24 -1.07,-2.93c-0.68,-0.68 -1.66,-1.07 -2.93,-1.07h-1.85v8.19h2.15c0.98,0 1.95,-0.39 2.63,-1.17c0.78,-0.78 1.07,-1.76 1.07,-3.02zM947.61,719.93h-6.54v3.71h6.34v1.95h-6.34v4.49h-2.54v-12.1h9.07zM902.83,738.95h-2.54v-2.63h2.54zM907.81,738.95h-2.54v-2.63h2.54zM912.78,738.95h-2.54v-2.63h2.54z" />
	</g>
	<path id="Layer" class="shp16" d="M76.78,783.44h-3.12v-3.61h3.12zM98.05,772.71c-1.37,1.27 -3.32,1.95 -5.76,1.95h-6.73v8.88h-3.12v-22.73h9.66c2.54,0 4.58,0.59 5.95,1.76c1.46,1.07 2.14,2.73 2.14,4.97c0,2.15 -0.68,3.9 -2.15,5.17zM97.07,767.54c0,-2.93 -1.76,-4.39 -5.37,-4.39h-6.15v8.98h6.24c3.61,0 5.27,-1.56 5.27,-4.59zM120.1,781.98c-1.66,1.17 -4,1.76 -6.93,1.76c-5.56,0 -8.78,-1.95 -9.66,-5.76l3.02,-0.59c0.29,1.27 1.07,2.34 2.24,3.02c1.17,0.68 2.63,0.98 4.58,0.98c2.05,0 3.51,-0.29 4.58,-0.98c1.07,-0.59 1.66,-1.76 1.66,-3.02c0,-0.78 -0.19,-1.37 -0.49,-1.85c-0.39,-0.49 -0.88,-0.88 -1.46,-1.17c-0.58,-0.29 -1.37,-0.59 -2.24,-0.78l-2.83,-0.68c-1.37,-0.29 -2.83,-0.68 -4.1,-1.17c-0.78,-0.29 -1.56,-0.78 -2.24,-1.37c-0.49,-0.49 -0.98,-1.07 -1.27,-1.76c-0.29,-0.68 -0.39,-1.46 -0.39,-2.24c0,-1.95 0.78,-3.41 2.24,-4.49c1.46,-1.07 3.61,-1.56 6.44,-1.56c2.63,0 4.58,0.39 5.95,1.17c1.37,0.78 2.34,2.15 2.93,4l-3.02,0.49c-0.29,-1.07 -0.98,-2.05 -1.95,-2.63c-1.17,-0.59 -2.54,-0.88 -3.9,-0.78c-1.85,0 -3.22,0.29 -4.19,0.88c-0.98,0.59 -1.46,1.56 -1.46,2.73c0,0.68 0.19,1.27 0.58,1.76c0.39,0.49 0.88,0.88 1.66,1.17c0.68,0.29 2.15,0.68 4.19,1.17l2.15,0.49c0.68,0.2 1.37,0.39 2.05,0.59c0.68,0.2 1.27,0.49 1.76,0.78c0.58,0.29 1.07,0.68 1.46,1.17c0.39,0.49 0.78,0.98 0.98,1.56c0.1,0.78 0.19,1.46 0.19,2.24c0,2.15 -0.78,3.71 -2.54,4.88zM145.17,777.97c-0.88,1.66 -2.24,3.12 -3.9,4c-1.76,0.98 -3.81,1.46 -5.85,1.37h-8.59v-22.73h7.61c3.9,0 6.83,0.98 8.98,2.93c2.05,1.95 3.12,4.68 3.12,8.29c0,2.34 -0.49,4.39 -1.37,6.15zM141.07,765.39c-1.56,-1.46 -3.81,-2.24 -6.73,-2.24h-4.39v17.85h5.07c1.66,0 3.12,-0.39 4.39,-1.07c1.27,-0.78 2.34,-1.85 2.93,-3.12c0.78,-1.46 1.07,-3.12 1.07,-4.98c0,-2.83 -0.78,-4.98 -2.34,-6.44zM234.34,783.44v-3.61h3.12v3.61zM261.95,783.44h-3.42l-6.83,-9.95l-7.02,9.95h-3.41l8.68,-11.8l-8,-10.93h3.41l6.34,8.98l6.15,-8.98h3.42l-7.81,10.83zM283.71,777.97c-0.88,1.66 -2.24,3.12 -3.9,4c-1.76,0.98 -3.81,1.46 -5.85,1.37h-8.58v-22.73h7.61c3.9,0 6.83,0.98 8.98,2.93c2.05,1.95 3.12,4.68 3.12,8.29c0,2.34 -0.49,4.39 -1.37,6.15zM279.61,765.39c-1.56,-1.46 -3.81,-2.24 -6.73,-2.24h-4.39v17.85h5.07c1.66,0 3.12,-0.39 4.39,-1.07c1.27,-0.78 2.34,-1.85 2.93,-3.12c0.78,-1.46 1.07,-3.12 1.07,-4.98c0,-2.83 -0.78,-4.98 -2.34,-6.44zM366.73,783.44h-3.12v-3.61h3.12zM383.32,782.37c-1.27,0.88 -3.02,1.37 -5.27,1.37c-2.15,0 -3.9,-0.39 -5.07,-1.07c-1.17,-0.78 -2.05,-1.95 -2.34,-3.41l2.54,-0.49c0.19,0.88 0.78,1.66 1.56,2.05c0.78,0.39 1.85,0.68 3.22,0.68c1.46,0 2.54,-0.2 3.22,-0.68c0.68,-0.49 1.07,-1.17 1.07,-2.05c0,-0.68 -0.19,-1.27 -0.68,-1.66c-0.68,-0.49 -1.46,-0.88 -2.34,-1.07l-2.05,-0.59c-1.27,-0.29 -2.44,-0.68 -3.61,-1.27c-0.68,-0.39 -1.27,-0.88 -1.66,-1.56c-0.39,-0.68 -0.58,-1.37 -0.58,-2.15c0,-1.56 0.58,-2.83 1.76,-3.61c1.17,-0.88 2.83,-1.27 4.98,-1.27c1.95,0 3.51,0.29 4.58,0.98c1.17,0.68 1.95,1.95 2.15,3.22l-2.63,0.29c-0.19,-0.78 -0.59,-1.37 -1.37,-1.76c-0.88,-0.49 -1.85,-0.68 -2.83,-0.68c-1.37,0 -2.34,0.2 -2.93,0.59c-0.59,0.39 -0.98,1.07 -0.98,1.85c0,0.49 0.1,0.88 0.39,1.27c0.29,0.39 0.68,0.59 1.17,0.78c0.49,0.2 1.56,0.49 3.22,0.98c1.56,0.39 2.63,0.78 3.32,1.07c0.68,0.29 1.17,0.68 1.56,1.07c1.07,0.97 1.56,2.14 1.46,3.32c0,1.66 -0.59,2.93 -1.85,3.8zM403.12,783.44h-3.42l-5.95,-8l-2.15,1.76v6.24h-2.93v-24h2.93v15.02l7.71,-8.49h3.41l-7.12,7.51zM407.51,775.24c0,1.95 0.39,3.51 1.27,4.68c0.88,1.07 2.05,1.66 3.61,1.66c1.27,0 2.24,-0.29 3.02,-0.78c0.68,-0.49 1.27,-1.17 1.56,-1.95l2.54,0.78c-1.07,2.73 -3.41,4.1 -7.12,4.1c-2.63,0 -4.58,-0.78 -5.95,-2.34c-1.37,-1.56 -2.05,-3.8 -2.05,-6.83c0,-2.93 0.68,-5.07 2.05,-6.63c1.37,-1.56 3.32,-2.34 5.85,-2.34c5.17,0 7.71,3.12 7.71,9.27v0.39zM416.98,773.1c-0.19,-1.85 -0.59,-3.22 -1.46,-4c-0.78,-0.88 -1.95,-1.27 -3.32,-1.27c-1.46,0 -2.54,0.49 -3.42,1.46c-0.78,0.98 -1.27,2.34 -1.27,3.81zM430.54,783.24c-0.98,0.29 -1.95,0.39 -2.93,0.39c-2.34,0 -3.51,-1.27 -3.51,-4v-11.71h-2.05v-2.15h2.15l0.88,-3.9h1.95v3.9h3.22v2.15h-3.22v11.02c0,0.88 0.1,1.46 0.39,1.76c0.29,0.29 0.78,0.49 1.46,0.49c0.39,0.2 0.88,0.1 1.66,-0.1zM436.29,779.73c0.78,1.17 1.85,1.66 3.32,1.66c1.07,0 1.95,-0.29 2.63,-0.88c0.78,-0.68 1.17,-1.56 1.27,-2.63l2.93,0.19c-0.19,1.56 -0.98,3.02 -2.15,4c-1.27,1.07 -2.93,1.56 -4.59,1.46c-2.44,0 -4.29,-0.78 -5.66,-2.34c-1.27,-1.56 -1.95,-3.8 -1.95,-6.73c0,-2.93 0.68,-5.17 1.95,-6.73c1.27,-1.56 3.12,-2.34 5.56,-2.34c1.76,0 3.32,0.49 4.49,1.37c1.17,0.98 2.05,2.34 2.24,3.8l-3.02,0.2c-0.1,-0.88 -0.49,-1.66 -1.17,-2.34c-0.59,-0.59 -1.46,-0.88 -2.63,-0.88c-1.56,0 -2.63,0.49 -3.32,1.56c-0.68,1.07 -0.98,3.02 -0.98,5.46c0,2.34 0.39,4.1 1.07,5.17zM454.83,766.37c0.98,-0.59 2.15,-0.88 3.32,-0.78c1.95,0 3.32,0.49 4.19,1.46c0.88,0.98 1.37,2.54 1.37,4.68v11.71h-2.93v-11.12c0,-1.27 -0.1,-2.15 -0.39,-2.73c-0.19,-0.59 -0.58,-1.07 -1.07,-1.37c-0.68,-0.29 -1.37,-0.49 -2.15,-0.39c-1.37,0 -2.44,0.49 -3.32,1.46c-0.88,1.07 -1.27,2.44 -1.27,3.8v10.34h-2.93v-24h2.93v6.24c0,0.68 0,1.37 -0.1,2.05c0,0.68 0,1.07 0,1.17c0.59,-0.98 1.37,-1.85 2.34,-2.54zM545.95,783.44h-3.12v-3.61h3.12zM570.44,783.44h-3.41l-6.83,-9.95l-7.02,9.95h-3.41l8.68,-11.8l-8,-10.93h3.41l6.34,8.98l6.15,-8.98h3.41l-7.8,10.83zM578.05,765.29c-1.37,1.66 -2.15,3.8 -2.15,6.63c0,2.83 0.78,5.07 2.15,6.73c1.46,1.66 3.71,2.63 5.95,2.54c3.22,0 5.66,-1.56 7.22,-4.68l2.54,1.27c-0.88,1.85 -2.24,3.41 -4,4.49c-1.76,1.07 -3.8,1.56 -5.95,1.56c-2.34,0 -4.29,-0.49 -5.95,-1.46c-1.66,-0.98 -3.02,-2.34 -3.8,-4.1c-0.88,-1.95 -1.37,-4.1 -1.27,-6.34c0,-3.61 0.98,-6.44 2.93,-8.59c1.95,-2.15 4.68,-3.12 8.2,-3.12c2.44,0 4.49,0.49 6.05,1.46c1.66,0.98 2.93,2.44 3.61,4.2l-2.93,0.98c-0.49,-1.27 -1.37,-2.34 -2.54,-3.02c-1.17,-0.68 -2.63,-1.07 -4.1,-0.98c-2.54,0 -4.49,0.78 -5.95,2.44zM614.15,763.15h-13.17v8.49h12.78v2.54h-12.78v9.27h-3.12v-22.73h16.29zM730.24,783.44h-3.61l-5.95,-9.46h-7.12v9.46h-3.12v-22.73h10.73c2.54,0 4.59,0.59 5.95,1.76c1.46,1.17 2.24,2.93 2.15,4.78c0,1.66 -0.49,3.12 -1.46,4.29c-1.07,1.17 -2.54,1.95 -4.1,2.15zM726.24,767.15c0,-1.37 -0.49,-2.34 -1.37,-3.02c-0.88,-0.68 -2.15,-1.07 -3.9,-1.07h-7.32v8.39h7.51c1.66,0 2.93,-0.39 3.8,-1.17c0.78,-0.68 1.36,-1.85 1.27,-3.12zM753.85,783.44h-3.12l-2.63,-6.63h-10.44l-2.63,6.63h-3.22l9.37,-22.73h3.51zM742.83,762.95l-0.2,0.49c-0.29,0.88 -0.68,2.05 -1.17,3.41l-2.93,7.51h8.59l-2.93,-7.51c-0.19,-0.78 -0.49,-1.56 -0.88,-2.54zM784,760.61l-6.73,22.73h-3.71l-4,-14.44c-0.29,-0.88 -0.68,-2.54 -1.17,-4.88l-0.68,3.12c-0.2,0.88 -1.66,6.24 -4.39,16.2h-3.71l-6.73,-22.73h3.22l4.1,14.44c0.49,1.85 0.98,3.71 1.37,5.56c0.29,-1.17 0.59,-2.44 0.88,-3.9c0.29,-1.37 1.85,-6.83 4.49,-16.2h2.93l4,14.15c0.59,2.34 1.07,4.29 1.46,5.85l0.19,-0.59l0.68,-3.02c0.19,-0.78 1.76,-6.24 4.59,-16.49zM898.54,783.44h-3.12l-2.63,-6.63h-10.44l-2.63,6.63h-3.22l9.37,-22.73h3.51zM887.51,762.95l-0.19,0.49c-0.29,0.88 -0.68,2.05 -1.17,3.41l-2.93,7.51h8.59l-2.93,-7.51c-0.29,-0.78 -0.58,-1.56 -0.88,-2.54zM919.9,783.44h-3.71l-12.2,-19.41l0.1,1.56l0.1,2.73v15.12h-2.73v-22.73h3.61l12.39,19.51c-0.1,-2.15 -0.19,-3.61 -0.19,-4.59v-14.93h2.83zM944.1,760.61l-8.78,13.37v9.46h-3.12v-9.46l-8.78,-13.37h3.41l6.93,10.83l6.93,-10.83z" />
</svg>