<?xml version="1.0" encoding="utf-8"?>
<!-- Generator: Adobe Illustrator 16.0.0, SVG Export Plug-In . SVG Version: 6.00 Build 0)  -->
<svg version="1.2" baseProfile="tiny" id="图层_1"
	 xmlns="http://www.w3.org/2000/svg" xmlns:xlink="http://www.w3.org/1999/xlink" x="0px" y="0px" width="1024px" height="820px"
	 viewBox="0 0 1024 820" xml:space="preserve">
<path fill="#217AFF" stroke="#FFFFFF" stroke-width="5.96" d="M3,43.65v732.67c0.044,22.491,18.309,40.688,40.8,40.65h936.38
	c22.53,0,40.801-18.2,39.82-46.65V37.65c0.936-16.49-17.329-34.688-39.82-34.649H43.8C21.31,2.961,3.044,21.159,3,43.65z"/>
<g>
	<g>
		<polygon fill="#8C95AC" points="612.679,174.561 627.216,174.561 627.216,168.707 612.679,168.707 612.679,157.683 
			606.532,157.683 606.532,168.707 592.776,168.707 592.776,174.561 606.532,174.561 606.532,190.073 590.435,190.073 
			590.435,195.927 630.045,195.927 630.045,190.073 612.679,190.073 		"/>
		<path fill="#8C95AC" d="M601.85,140.025l-6.146-0.684c-0.878,2.927-1.854,5.854-3.122,8.684H574.63v5.854h15.122
			c-4.293,7.707-10.049,14.634-17.366,20.683l3.806,4.878c2.049-1.756,4-3.512,5.951-5.463v24.292h5.951v-30.927
			c3.316-4.194,6.146-8.683,8.585-13.463h33.562v-5.854h-30.928C600.094,145.292,600.972,142.658,601.85,140.025z"/>
		<path fill="#8C95AC" d="M650.728,164.805c-2.927,5.073-5.269,8.683-7.22,10.829c-0.78,0.683-1.658,1.269-2.731,1.658l1.658,5.464
			c6.049-0.78,12.488-2.342,19.317-4.585v-5.366c-4.195,1.366-8.195,2.536-12.195,3.415c3.513-4.586,7.805-11.708,12.976-21.562
			l-5.365-2.049c-1.171,2.439-2.342,4.683-3.513,6.829c-2.244,0.293-4.487,0.586-6.731,0.781c3.024-4.684,6.049-10.928,9.073-18.537
			l-5.757-2.244c-2.243,6.927-4.878,13.269-7.902,19.024c-0.78,1.073-1.561,1.854-2.438,2.244l1.463,5.464
			C644.679,165.683,647.703,165.196,650.728,164.805z"/>
		<path fill="#8C95AC" d="M692.191,147.049c-1.659-2.049-4-4.586-7.024-7.415l-4.586,2.927c2.927,2.829,5.269,5.464,6.927,7.805
			L692.191,147.049z"/>
		<path fill="#8C95AC" d="M662.435,184.61c-6.146,2.244-13.463,4.098-21.854,5.464l0.78,5.854
			c7.902-1.464,14.927-3.317,21.073-5.756V184.61L662.435,184.61z"/>
		<path fill="#8C95AC" d="M689.264,190.854c-1.561,0-3.219-1.562-5.072-4.391c3.609-3.316,7.023-7.219,10.146-11.805l-4.683-3.22
			c-2.342,3.513-4.976,6.732-7.902,9.464c-0.78-2.342-1.561-4.976-2.049-7.902l-0.293-1.854l16.293-2.537l-0.878-5.658
			l-16.098,2.536c-0.293-2.244-0.39-4.585-0.487-7.122l15.805-2.243l-0.78-5.562l-15.024,2.049v-12.78h-5.951v13.561l-9.171,1.366
			l0.878,5.561l8.391-1.17c0.097,2.536,0.292,4.878,0.487,7.219l-10.829,1.659l0.78,5.658l10.829-1.658
			c0.293,1.365,0.488,2.731,0.78,4.098c0.781,3.121,1.659,6.049,2.732,8.683c-4.391,3.317-9.464,5.756-15.122,7.609l3.512,4.781
			c5.073-1.562,9.854-3.903,14.342-7.22c0.293,0.487,0.683,1.073,1.171,1.658c2.829,3.805,5.854,5.756,8.976,5.756
			c3.512,0,6.146-4.098,8.098-12.195l-5.073-3.414C691.898,187.829,690.728,190.854,689.264,190.854z"/>
		<path fill="#8C95AC" d="M733.069,142.854h-20.976v50.634h7.707v-19.707h13.171c12.098,0,18.244-5.171,18.244-15.513
			C751.215,148.025,745.167,142.854,733.069,142.854z M740.874,165.098c-1.756,1.463-4.585,2.146-8.391,2.146h-12.585v-17.756
			h12.585c3.806,0,6.537,0.684,8.293,2.146c1.756,1.269,2.731,3.513,2.731,6.634C743.508,161.39,742.532,163.634,740.874,165.098z"
			/>
		<path fill="#8C95AC" d="M793.459,169.098c-1.951-1.171-6.438-2.83-13.268-4.976c-4.781-1.464-7.708-2.439-8.781-3.122
			c-2.536-1.366-3.805-3.122-3.805-5.366c0-2.536,1.073-4.391,3.22-5.561c1.756-0.976,4.293-1.464,7.707-1.464
			c3.806,0,6.635,0.683,8.684,2.244c1.951,1.463,3.219,3.805,3.999,7.122h7.708c-0.488-5.562-2.439-9.562-6.049-12.195
			c-3.317-2.537-7.902-3.805-13.854-3.805c-5.366,0-9.854,1.171-13.366,3.609c-3.805,2.537-5.561,6.049-5.561,10.537
			c0,4.39,1.951,7.805,5.854,10.146c1.561,0.879,5.365,2.244,11.609,4.195c5.562,1.659,8.976,2.829,10.049,3.415
			c3.22,1.658,4.78,3.805,4.78,6.634c0,2.244-1.171,4-3.414,5.366c-2.244,1.269-5.366,1.951-9.171,1.951
			c-4.293,0-7.415-0.78-9.464-2.342c-2.243-1.658-3.707-4.585-4.292-8.585h-7.708c0.391,6.342,2.732,11.024,6.927,14.049
			c3.513,2.438,8.293,3.707,14.439,3.707c6.342,0,11.317-1.269,14.927-3.805c3.513-2.634,5.366-6.146,5.366-10.731
			C799.996,175.341,797.752,171.634,793.459,169.098z"/>
		<polygon fill="#8C95AC" points="527.977,132.61 534.928,126.61 534.928,205.439 527.977,211.439 		"/>
	</g>
</g>
<text transform="matrix(1 0 0 1 137.8301 203.4387)" fill="#FFFFFF" font-family="'MicrosoftYaHeiLight'" font-size="110">图艺图</text>
<text transform="matrix(1 0 0 1 825.1465 60.3411)" fill="#FDAD00" font-family="'MicrosoftYaHei'" font-size="36">HTML5版</text>
<path fill="#000211" d="M82.439,680.025v50.731c0,4.293,3.512,7.805,7.805,7.805h42.927c4.293,0,7.805-3.512,7.805-7.805v-50.731
	c0-4.293-3.512-7.806-7.805-7.806H90.244C85.951,672.219,82.439,675.732,82.439,680.025z"/>
<path fill="#00CCFF" d="M90.244,672.219h42.927c4.293,0,7.805,3.513,7.805,7.806v50.731c0,4.293-3.512,7.805-7.805,7.805H90.244
	c-4.292,0-7.805-3.512-7.805-7.805v-10.439h-8.39c-3.317,0-6.049-2.731-6.049-6.049v-16.195c0-3.316,2.731-6.049,6.049-6.049l0,0
	h8.39v-11.999C82.439,675.732,85.951,672.219,90.244,672.219L90.244,672.219z M88.488,733h46.829v-54.635H88.488v13.658h25.17
	c3.317,0,6.049,2.732,6.049,6.049v16.195c0,3.317-2.731,6.049-6.049,6.049l0,0h-25.17V733z"/>
<path d="M86.439,702.756c0,1.658-0.488,2.927-1.561,3.805s-2.537,1.269-4.39,1.269h-1.366v5.463h-3.317v-15.316h4.878
	c1.854,0,3.22,0.39,4.195,1.17C85.951,700.025,86.439,701.195,86.439,702.756z M79.122,700.707v4.585h1.073
	c0.976,0,1.756-0.195,2.244-0.585c0.488-0.391,0.78-0.976,0.78-1.756c0-0.781-0.195-1.366-0.585-1.659
	c-0.39-0.39-1.073-0.585-1.951-0.585H79.122L79.122,700.707z M98.341,709.097c0,1.366-0.488,2.439-1.463,3.22
	s-2.341,1.171-4.098,1.171c-1.463,0-3.024-0.293-4.292-0.976v-2.927c1.073,0.487,1.951,0.78,2.634,0.976
	c0.683,0.195,1.366,0.293,1.951,0.293c0.683,0,1.268-0.098,1.658-0.391c0.391-0.293,0.585-0.683,0.585-1.171
	c0-0.293-0.098-0.585-0.292-0.78c-0.195-0.293-0.488-0.488-0.781-0.683c-0.292-0.195-0.976-0.586-1.951-1.073
	c-0.78-0.293-1.463-0.78-2.146-1.269c-0.488-0.391-0.878-0.878-1.17-1.464c-0.293-0.585-0.39-1.268-0.39-1.854
	c0-1.365,0.488-2.438,1.366-3.219c1.073-0.781,2.439-1.269,3.805-1.171c0.781,0,1.561,0.098,2.244,0.292
	c0.683,0.195,1.463,0.488,2.244,0.781l-1.073,2.536c-0.78-0.293-1.463-0.585-2.048-0.683c-0.488-0.098-1.073-0.195-1.561-0.195
	c-0.585,0-1.073,0.195-1.366,0.391c-0.292,0.194-0.488,0.683-0.488,1.17c0,0.293,0.098,0.488,0.195,0.781
	c0.098,0.194,0.292,0.39,0.585,0.585c0.292,0.195,0.976,0.585,2.049,1.073c1.17,0.487,2.146,1.171,2.927,2.049
	C98.146,707.243,98.341,708.025,98.341,709.097L98.341,709.097z M113.854,705.488c0,2.536-0.683,4.488-2.146,5.756
	c-1.463,1.366-3.512,2.049-6.244,2.049h-4.293v-15.316h4.781c2.537,0,4.488,0.683,5.854,1.951
	C113.17,701.292,113.854,703.146,113.854,705.488L113.854,705.488z M110.439,705.585c0-3.317-1.463-4.976-4.39-4.976h-1.756v9.951
	h1.366C108.878,710.658,110.439,709,110.439,705.585z"/>
<path fill="#000211" d="M234.634,680.025v50.731c0,4.293,3.513,7.805,7.805,7.805h42.927c4.292,0,7.805-3.512,7.805-7.805v-50.731
	c0-4.293-3.512-7.806-7.805-7.806h-42.927C238.146,672.219,234.634,675.732,234.634,680.025L234.634,680.025z"/>
<path fill="#FF00C4" d="M242.439,672.219h42.927c4.292,0,7.805,3.513,7.805,7.806v50.731c0,4.293-3.512,7.805-7.805,7.805h-42.927
	c-4.292,0-7.805-3.512-7.805-7.805v-10.439h-8.39c-3.317,0-6.049-2.731-6.049-6.049v-16.195c0-3.316,2.732-6.049,6.049-6.049l0,0
	h8.39v-11.999C234.634,675.732,238.146,672.219,242.439,672.219L242.439,672.219z M240.683,733h46.83v-54.635h-46.83v13.658h25.171
	c3.317,0,6.049,2.732,6.049,6.049v16.195c0,3.317-2.732,6.049-6.049,6.049l0,0h-25.171V733z"/>
<path d="M240.78,705.585l5.171,7.707h-3.708l-3.512-5.756l-3.512,5.756h-3.512l5.073-7.902l-4.78-7.414h3.609l3.317,5.561
	l3.219-5.561h3.512L240.78,705.585z M260.585,705.488c0,2.536-0.683,4.488-2.146,5.756c-1.463,1.366-3.512,2.049-6.244,2.049h-4.292
	v-15.316h4.78c2.537,0,4.488,0.683,5.854,1.951C259.902,701.292,260.585,703.146,260.585,705.488L260.585,705.488z M257.17,705.585
	c0-3.317-1.463-4.976-4.39-4.976h-1.756v9.951h1.366C255.609,710.658,257.17,709,257.17,705.585L257.17,705.585z"/>
<path fill="#FDB300" d="M392.585,677.976l20.878-2.244l20.879,2.244l16.194,21.756l-37.073,43.22l-37.073-43.22L392.585,677.976z"/>
<path fill="#EA6C00" d="M376.39,699.732l37.073,43.22l-22.049-43.22H376.39z M435.609,699.732l-22.049,43.22l37.073-43.22H435.609z"
	/>
<path fill="#FDAD00" d="M413.561,742.951l22.049-43.22h-44.194L413.561,742.951z"/>
<g>
	<path fill="#FDD231" d="M413.561,675.732l-20.878,2.244l-1.171,21.756L413.561,675.732z M435.609,699.732l-1.171-21.756
		l-20.878-2.244L435.609,699.732z"/>
	<path fill="#FDAD00" d="M450.634,699.732l-16.195-21.756l1.171,21.756H450.634z M391.414,699.732l1.171-21.756l-16.195,21.756
		H391.414z"/>
	<path fill="#FEEEB7" d="M413.561,675.732l-22.049,23.902h44.195L413.561,675.732z"/>
</g>
<g>
	<g>
		<ellipse cx="577.951" cy="724.414" rx="20.976" ry="9.073"/>
	</g>
	<g>
		<image width="70" height="57" xlink:href="3B8EF6DC.png"  transform="matrix(1 0 0 1 539.5 676.5002)">
		</image>
		<path fill="#2E3436" d="M579.596,734.328c-18.464,0-38.931-13.5-40.341-21.337l-0.168-0.932l0.908-0.267
			c5.377-1.582,8.94-3.927,10.308-6.782c1.181-2.465,0.37-4.491,0.335-4.576l-0.083-0.2v-0.223l0.195-15.708l2.002-0.451
			c0.228,0.462,5.709,11.316,18.367,11.316l0.468-0.005c26.523-0.714,32.612-13.433,33.846-17.313
			c0.584-1.832,1.493-2.217,2.153-2.217c0.394,0,1.702,0.187,2.044,2.583c2.445,22.185-0.498,38.085-8.746,47.292
			C595.642,731.361,588.479,734.328,579.596,734.328z M541.591,713.509c2.567,6.568,20.527,18.709,38.005,18.709
			c8.258,0,14.892-2.731,19.717-8.117c7.83-8.741,10.597-24.09,8.224-45.62c-0.009-0.063-0.019-0.121-0.029-0.176
			c-0.021,0.057-0.042,0.118-0.063,0.186c-1.341,4.216-7.885,18.031-35.806,18.783c-0.179,0.004-0.349,0.006-0.519,0.006
			c-9.661,0-15.519-5.709-18.304-9.416l-0.148,11.979c0.257,0.753,0.895,3.196-0.432,6.02
			C550.688,709.156,547.109,711.725,541.591,713.509z"/>
	</g>
	<image width="30" height="10" xlink:href="3B8EF6DD.png"  transform="matrix(1 0 0 1 562.5 714.5002)">
	</image>
	<image width="67" height="53" xlink:href="3B8EF6DB.png"  transform="matrix(1 0 0 1 541.5 679.5002)">
	</image>
	<g>
		<image width="18" height="18" xlink:href="3B8EF6E4.png"  transform="matrix(1 0 0 1 549.5 693.5002)">
		</image>
		<path fill="#888A85" d="M558.536,712.103c-1.696,0-3.338-0.458-4.747-1.326c-2.159-1.264-3.714-3.297-4.357-5.713
			c-0.646-2.424-0.299-4.957,0.976-7.134c1.693-2.894,4.808-4.691,8.128-4.691c1.652,0,3.288,0.445,4.729,1.29
			c2.804,1.617,4.619,4.811,4.619,8.13C567.884,707.866,563.69,712.103,558.536,712.103z M558.535,695.348
			c-2.573,0-4.99,1.398-6.308,3.648c-0.987,1.687-1.256,3.648-0.757,5.524c0.499,1.875,1.708,3.454,3.404,4.447
			c1.097,0.675,2.355,1.025,3.661,1.025c3.991,0,7.238-3.291,7.238-7.335c0-2.579-1.401-5.055-3.57-6.306
			C561.08,695.695,559.813,695.348,558.535,695.348z"/>
	</g>
	<g>
		<image width="21" height="23" xlink:href="3B8EF6E7.png"  transform="matrix(1 0 0 1 532.5 699.5002)">
		</image>
		<path d="M546.124,723.535c-4.032,0-8.354-2.57-11.278-6.707c-4.382-6.199-4.32-13.611,0.141-16.875
			c1.315-0.962,2.938-1.471,4.69-1.471c4.021,0,8.361,2.561,11.326,6.682c4.454,6.15,4.395,13.566-0.136,16.882
			C549.535,723.02,547.896,723.535,546.124,723.535z M539.677,700.592c-1.32,0-2.479,0.358-3.444,1.064
			c-3.463,2.533-3.313,8.793,0.336,13.953c2.497,3.533,6.248,5.815,9.556,5.815c1.34,0,2.516-0.364,3.497-1.082
			c3.521-2.576,3.373-8.831-0.329-13.943C546.754,702.87,542.98,700.592,539.677,700.592z"/>
	</g>
	<path fill="#2E3436" stroke="#000000" stroke-width="2.11" d="M564.487,703.927c0,2.243-1.854,4-4,4c-2.146,0-4-1.854-4-4
		c0-2.146,1.854-4,4-4C562.634,699.927,564.487,701.683,564.487,703.927z"/>
	<image width="20" height="21" xlink:href="3B8EF6E5.png"  transform="matrix(1 0 0 1 532.5 700.5002)">
	</image>
	<path fill="#FFFFFF" d="M542.438,706.463c0,1.561-0.683,3.024-1.854,3.805c-1.073,0.78-2.536,0.78-3.609,0
		c-1.171-0.878-1.854-2.341-1.854-3.805c0-1.561,0.683-3.024,1.854-3.805c1.073-0.78,2.536-0.78,3.609,0
		C541.756,703.536,542.438,705,542.438,706.463z M561.658,702.073c0,1.562-1.269,2.83-2.829,2.83s-2.829-1.269-2.829-2.83l0,0
		c0-1.561,1.269-2.829,2.829-2.829C560.487,699.243,561.658,700.512,561.658,702.073z"/>
	<g>
		<image width="21" height="20" xlink:href="3B8EF6EB.png"  transform="matrix(1 0 0 1 565.5 693.5002)">
		</image>
		<path fill="#888A85" d="M575.805,714.445c-1.876,0-3.724-0.505-5.493-1.502c-5.274-3.076-7.029-9.62-4.008-14.905
			c1.967-3.371,5.588-5.461,9.455-5.461c1.895,0,3.778,0.505,5.447,1.459c3.397,2.082,5.409,5.627,5.409,9.501
			C586.615,709.551,581.766,714.445,575.805,714.445z M575.759,694.687c-3.12,0-6.043,1.688-7.628,4.405
			c-2.435,4.26-1.018,9.543,3.229,12.021c1.437,0.809,2.936,1.223,4.444,1.223c4.798,0,8.701-3.947,8.701-8.799
			c0-3.134-1.636-6.007-4.375-7.686C578.808,695.095,577.286,694.687,575.759,694.687z"/>
	</g>
	<path fill="#2E3436" stroke="#000000" stroke-width="2.11" d="M582.829,705c0,2.634-2.146,4.78-4.683,4.78
		c-2.635,0-4.78-2.146-4.78-4.78l0,0c0-2.635,2.146-4.684,4.683-4.684C580.683,700.317,582.829,702.365,582.829,705z"/>
	<path fill="#FFFFFF" d="M579.512,702.854c0,1.854-1.463,3.316-3.316,3.316c-1.854,0-3.317-1.463-3.317-3.316l0,0
		c0-1.854,1.463-3.317,3.317-3.317C578.049,699.536,579.512,701,579.512,702.854z"/>
	<g>
		<image width="24" height="14" xlink:href="3B8EF6EC.png"  transform="matrix(1 0 0 1 584.5 719.5002)">
		</image>
		<path fill="#673907" d="M606.299,734.156l-0.834-0.24c-8.563-2.461-19.564-10.264-20.028-10.594l-0.082-0.065
			c-1.014-0.887-1.42-2.12-1.036-3.144c0.469-1.244,1.971-1.711,3.567-0.982c1.21,0.357,13.465,4.048,20.441,9.112l0.731,0.53
			L606.299,734.156z M586.707,721.637c0.762,0.536,10.68,7.468,18.513,9.999l1.129-2.202c-7.032-4.745-19.007-8.264-19.132-8.3
			l-0.16-0.061c-0.637-0.307-0.795-0.185-0.797-0.182C586.262,720.934,586.307,721.27,586.707,721.637z"/>
	</g>
	<g>
		<image width="13" height="9" xlink:href="3B8EF6EF.png"  transform="matrix(1 0 0 1 603.5 727.5002)">
		</image>
		<path fill="#888A85" d="M615.401,737.744l-10.03-3.638l-0.192-0.192l-1.262,0.421l-0.333-1.002
			c-0.665-1.999,1.281-5.23,2.811-6.123l1.122-0.655l0.533,1.497l0.229,0.032l8.852,5.684L615.401,737.744z M606.531,732.282
			l7.726,2.802l0.223-0.512l-6.953-4.463l-0.98-0.14c-0.331,0.468-0.632,1.026-0.815,1.536l0.017-0.006L606.531,732.282z"/>
	</g>
	<path fill="none" stroke="#FFFFFF" stroke-width="2.11" stroke-linecap="round" stroke-linejoin="round" d="M609.658,732.121
		l5.269,2.244"/>
	<image width="14" height="15" xlink:href="9BA9AE2B.png"  transform="matrix(1 0 0 1 612.5 731.5002)">
	</image>
	<image width="6" height="5" xlink:href="9BA9AE29.png"  transform="matrix(1 0 0 1 614.5 731.5002)">
	</image>
	<path fill="#FFFFFF" d="M607.512,729.195c0.488-0.195,1.073,0,1.464,0.293c0.585,0.585,0.585,1.464,0.098,2.049
		c-0.586,0.585-1.464,0.585-2.049,0.098c-0.586-0.586-0.586-1.464-0.098-2.049C607.024,729.39,607.22,729.195,607.512,729.195z"/>
	<image width="4" height="7" xlink:href="9BA9AE2F.png"  transform="matrix(1 0 0 1 619.5 734.5002)">
	</image>
	<image width="12" height="8" xlink:href="9BA9AE2A.png"  transform="matrix(1 0 0 1 577.5 716.5002)">
	</image>
</g>
<g>
	<path fill="#706D6D" d="M757.463,670.561H728.78c-3.805,0-6.829,3.024-6.829,6.829l0,0v2.244h42.438v-2.244
		C764.293,673.585,761.269,670.561,757.463,670.561L757.463,670.561L757.463,670.561z"/>
	<path fill="#BFBFBF" d="M783.805,679.732h-81.366c-4.487,0-8.098,3.609-8.098,8.098v41.463c0,4.488,3.61,8.098,8.098,8.098h81.366
		c4.488,0,8.098-3.609,8.098-8.098v-41.463C791.902,683.341,788.293,679.732,783.805,679.732L783.805,679.732z"/>
	<path fill="#414141" d="M791.902,688.805h-97.562v39.414h97.562V688.805z"/>
	<path fill="#E8E6E6" d="M743.122,682.17c-14.537,0-26.439,11.806-26.439,26.342c0,14.537,11.805,26.439,26.439,26.439l0,0
		c14.536,0,26.438-11.806,26.341-26.439C769.463,693.976,757.658,682.17,743.122,682.17z"/>
	<path fill="#1C1C1C" d="M743.122,689.878c-10.342,0-18.732,8.39-18.732,18.731s8.391,18.731,18.732,18.731
		s18.731-8.39,18.731-18.731S753.463,689.878,743.122,689.878z"/>
	<path fill="#686868" d="M735.415,695.243c-3.025-0.098-5.659,2.244-5.757,5.269s2.244,5.658,5.269,5.756c0.195,0,0.293,0,0.488,0
		c3.023-0.098,5.463-2.731,5.268-5.756C740.585,697.683,738.341,695.341,735.415,695.243z"/>
	<path fill="#DA0100" d="M785.854,690.561c-1.269,0-2.342,1.073-2.342,2.342c0,1.268,1.073,2.341,2.342,2.341
		s2.342-1.073,2.342-2.341C788.195,691.634,787.122,690.561,785.854,690.561z"/>
</g>
<g>
	<path d="M856.293,685v48.976c0,5.365,4.487,9.756,9.951,9.756h79.414c5.464,0,9.854-4.391,9.951-9.756l0,0V685
		c0-5.366-4.487-9.757-9.951-9.757h-79.414C860.78,675.146,856.293,679.536,856.293,685L856.293,685z"/>
	<path fill="#FFFFFF" d="M868.878,693c-1.073,0.097-2.049-0.195-2.927-0.781c-0.683-0.585-1.171-1.463-1.366-2.634l2.537-0.391
		c0.098,0.586,0.292,1.073,0.585,1.366s0.683,0.487,1.171,0.487s0.878-0.194,1.171-0.487c0.292-0.293,0.39-0.78,0.39-1.464v-6.341
		H868v-1.951h4.976v8.292c0,1.269-0.391,2.244-1.073,2.927C871.122,692.707,870.049,693.097,868.878,693L868.878,693z
		 M885.561,684.512c0,0.78-0.194,1.464-0.487,2.049c-0.391,0.585-0.878,1.073-1.562,1.463c-0.683,0.293-1.463,0.488-2.438,0.488
		h-3.024v4.293h-2.536v-12.098h5.561c1.463,0,2.634,0.292,3.414,0.976C885.171,682.463,885.658,683.439,885.561,684.512
		L885.561,684.512z M883.024,684.61c0-1.269-0.78-1.951-2.244-1.951h-2.634v3.902h2.731c0.683,0,1.269-0.195,1.658-0.488
		C882.829,685.781,883.024,685.195,883.024,684.61z M893.269,691.048c0.683,0,1.268-0.097,1.951-0.292
		c0.585-0.195,1.073-0.488,1.463-0.78v-1.659h-3.024v-1.854h5.366v4.488c-0.683,0.683-1.561,1.268-2.537,1.561
		c-1.072,0.391-2.146,0.585-3.316,0.585c-1.951,0-3.513-0.585-4.586-1.658s-1.658-2.634-1.658-4.683
		c0-1.951,0.488-3.513,1.658-4.586c1.171-1.073,2.635-1.561,4.684-1.561c2.927,0,4.683,1.073,5.463,3.122l-2.342,0.683
		c-0.194-0.585-0.683-1.073-1.17-1.366c-0.586-0.292-1.269-0.487-1.951-0.487c-1.171,0-2.146,0.391-2.732,1.073
		c-0.585,0.683-0.976,1.756-0.976,3.122c0,1.365,0.293,2.438,0.976,3.219C891.122,690.658,892,691.048,893.269,691.048
		L893.269,691.048z M921.366,684.512c0,0.78-0.195,1.464-0.488,2.049c-0.391,0.585-0.878,1.073-1.561,1.463
		c-0.684,0.293-1.464,0.488-2.439,0.488h-3.024v4.293h-2.536v-12.098h5.561c1.464,0,2.634,0.292,3.415,0.976
		C920.976,682.463,921.366,683.439,921.366,684.512L921.366,684.512z M918.731,684.61c0-1.269-0.78-1.951-2.244-1.951h-2.634v3.902
		h2.731c0.684,0,1.269-0.195,1.659-0.488C918.536,685.781,918.731,685.195,918.731,684.61z M933.658,692.805h-3.024l-5.365-9.366
		c0.098,0.878,0.195,1.658,0.195,2.146v7.122h-2.244V680.61h2.927l5.463,9.463c-0.098-0.878-0.194-1.658-0.194-2.341v-7.024h2.243
		V692.805z M941.854,691.048c0.683,0,1.269-0.097,1.951-0.292c0.585-0.195,1.073-0.488,1.464-0.78v-1.659h-3.024v-1.854h5.365v4.488
		c-0.683,0.683-1.561,1.268-2.536,1.561c-1.073,0.391-2.146,0.585-3.317,0.585c-1.951,0-3.512-0.585-4.585-1.658
		s-1.659-2.634-1.659-4.683c0-1.951,0.488-3.513,1.659-4.586s2.634-1.561,4.683-1.561c2.927,0,4.683,1.073,5.464,3.122l-2.342,0.683
		c-0.195-0.585-0.684-1.073-1.171-1.366c-0.585-0.292-1.269-0.487-1.951-0.487c-1.171,0-2.146,0.391-2.731,1.073
		c-0.586,0.683-0.976,1.756-0.976,3.122c0,1.365,0.292,2.438,0.976,3.219C939.805,690.658,940.683,691.048,941.854,691.048
		L941.854,691.048z M872.39,709.683c0.684,0,1.269-0.098,1.951-0.293c0.586-0.195,1.074-0.487,1.464-0.78v-1.658h-3.024v-1.854
		h5.366v4.488c-0.684,0.683-1.562,1.269-2.537,1.561c-1.073,0.391-2.146,0.586-3.316,0.586c-1.951,0-3.513-0.586-4.586-1.659
		s-1.658-2.634-1.658-4.683c0-1.951,0.487-3.512,1.658-4.585s2.635-1.562,4.683-1.562c2.928,0,4.684,1.073,5.464,3.122l-2.342,0.683
		c-0.194-0.585-0.683-1.073-1.171-1.365c-0.585-0.293-1.268-0.488-1.951-0.488c-1.17,0-2.146,0.391-2.731,1.073
		c-0.585,0.683-0.976,1.756-0.976,3.122s0.293,2.439,0.976,3.22C870.244,709.292,871.22,709.585,872.39,709.683L872.39,709.683z
		 M883.024,711.439h-2.537v-12.098h2.537V711.439z M894.438,701.292h-6.536V705h6.342v1.951h-6.342v4.487h-2.536v-12.098h9.072
		V701.292z M920.78,701.292h-4v10.146h-2.536v-10.146h-4v-1.951h10.536V701.292z M924.683,711.439h-2.536v-12.098h2.536V711.439z
		 M936.195,701.292h-6.537V705H936v1.951h-6.342v4.487h-2.536v-12.098h9.073V701.292z M947.122,701.292h-6.537V705h6.342v1.951
		h-6.342v4.487h-2.536v-12.098h9.073V701.292z M876.098,726.561c0,1.171-0.488,2.146-1.366,2.731
		c-0.878,0.586-2.146,0.976-3.902,0.976c-1.269,0.098-2.536-0.195-3.707-0.78c-0.878-0.585-1.562-1.463-1.756-2.536l2.438-0.391
		c0.195,0.683,0.488,1.073,0.976,1.366c0.488,0.292,1.171,0.39,2.049,0.39c1.756,0,2.731-0.487,2.731-1.658
		c0-0.293-0.098-0.585-0.292-0.878c-0.195-0.293-0.586-0.391-0.879-0.586c-0.683-0.194-1.463-0.39-2.146-0.585
		c-0.879-0.195-1.562-0.391-1.952-0.488c-0.39-0.097-0.683-0.292-0.975-0.487c-0.586-0.293-0.977-0.878-1.171-1.464
		c-0.098-0.39-0.195-0.78-0.195-1.17c0-1.073,0.39-1.951,1.269-2.537c0.878-0.585,2.049-0.878,3.609-0.878s2.634,0.195,3.414,0.683
		c0.781,0.488,1.366,1.366,1.464,2.342l-2.536,0.293c-0.098-0.488-0.391-0.878-0.781-1.171c-0.39-0.293-0.976-0.391-1.658-0.391
		c-1.561,0-2.342,0.488-2.342,1.464c0,0.292,0.098,0.585,0.195,0.78c0.195,0.195,0.391,0.391,0.78,0.487
		c0.293,0.098,0.976,0.293,1.952,0.488c1.17,0.195,2.048,0.488,2.536,0.683c0.487,0.195,0.878,0.488,1.171,0.781
		c0.293,0.292,0.487,0.585,0.683,0.976C876,725.585,876.098,726.073,876.098,726.561L876.098,726.561z M888.585,717.976
		l-4.487,12.097h-2.635l-4.585-12.097h2.731l2.537,7.805c0.194,0.487,0.39,1.268,0.683,2.243l0.195-0.78l0.487-1.561l2.537-7.805
		L888.585,717.976z M895.707,728.219c0.683,0,1.269-0.098,1.951-0.292c0.586-0.195,1.073-0.488,1.464-0.781v-1.658h-3.024v-1.854
		h5.366v4.487c-0.684,0.684-1.562,1.269-2.537,1.562c-1.073,0.39-2.146,0.585-3.317,0.585c-1.951,0-3.512-0.585-4.585-1.658
		s-1.658-2.635-1.658-4.684c0-1.951,0.487-3.512,1.658-4.585s2.634-1.561,4.683-1.561c2.927,0,4.683,1.073,5.464,3.122l-2.342,0.683
		c-0.195-0.586-0.683-1.073-1.171-1.366c-0.585-0.292-1.269-0.487-1.951-0.487c-1.171,0-2.146,0.39-2.731,1.073
		c-0.586,0.683-0.976,1.756-0.976,3.121c0,1.366,0.292,2.439,0.976,3.22C893.658,727.829,894.536,728.219,895.707,728.219
		L895.707,728.219z M923.805,721.781c0,0.78-0.195,1.463-0.487,2.049c-0.391,0.585-0.879,1.073-1.562,1.463
		c-0.683,0.293-1.463,0.488-2.438,0.488h-3.024v4.292h-2.537v-12.097h5.562c1.463,0,2.634,0.292,3.414,0.976
		C923.415,719.634,923.902,720.707,923.805,721.781L923.805,721.781z M921.269,721.781c0-1.269-0.781-1.951-2.244-1.951h-2.635
		v3.902h2.732c0.683,0,1.268-0.195,1.658-0.488C921.073,722.951,921.269,722.463,921.269,721.781z M936.585,723.927
		c0,1.268-0.292,2.341-0.78,3.316c-0.487,0.878-1.171,1.659-2.146,2.146c-0.878,0.488-1.951,0.78-3.122,0.78h-4.976v-12.098h4.488
		c2.049,0,3.707,0.488,4.78,1.562C936,720.512,936.585,721.976,936.585,723.927L936.585,723.927z M933.951,723.927
		c0-1.269-0.293-2.244-1.073-2.927c-0.683-0.684-1.658-1.073-2.927-1.073h-1.854v8.194h2.146c0.976,0,1.951-0.39,2.634-1.17
		C933.658,726.17,933.951,725.195,933.951,723.927z M947.609,719.927h-6.536v3.707h6.341v1.951h-6.341v4.487h-2.537v-12.098h9.073
		V719.927z M902.829,738.951h-2.536v-2.635h2.536V738.951z M907.805,738.951h-2.536v-2.635h2.536V738.951z M912.78,738.951h-2.536
		v-2.635h2.536V738.951z"/>
</g>
<path fill="#FFFFFF" d="M76.78,783.439h-3.122v-3.609h3.122V783.439z M100.195,767.536c0,2.146-0.683,3.902-2.146,5.171
	c-1.366,1.269-3.317,1.951-5.756,1.951h-6.731v8.878h-3.122v-22.731h9.659c2.536,0,4.585,0.585,5.951,1.756
	C99.512,763.634,100.195,765.292,100.195,767.536L100.195,767.536z M97.073,767.536c0-2.927-1.756-4.391-5.366-4.391h-6.146v8.976
	h6.244C95.415,772.121,97.073,770.561,97.073,767.536z M122.634,777.097c0,2.146-0.78,3.708-2.536,4.879
	c-1.659,1.17-4,1.756-6.927,1.756c-5.561,0-8.78-1.951-9.658-5.756l3.024-0.586c0.292,1.269,1.073,2.342,2.244,3.024
	s2.634,0.976,4.585,0.976c2.049,0,3.512-0.293,4.585-0.976c1.073-0.585,1.658-1.756,1.658-3.024c0-0.78-0.195-1.366-0.487-1.854
	c-0.391-0.488-0.878-0.878-1.464-1.171c-0.585-0.293-1.366-0.585-2.244-0.78l-2.829-0.683c-1.366-0.293-2.83-0.684-4.098-1.171
	c-0.781-0.293-1.561-0.78-2.244-1.366c-0.488-0.487-0.976-1.073-1.268-1.756c-0.293-0.683-0.39-1.464-0.39-2.244
	c0-1.951,0.78-3.414,2.244-4.487s3.61-1.562,6.439-1.562c2.634,0,4.585,0.391,5.951,1.171c1.366,0.78,2.342,2.146,2.927,4
	l-3.024,0.488c-0.292-1.073-0.976-2.049-1.951-2.635c-1.17-0.585-2.537-0.878-3.902-0.78c-1.854,0-3.219,0.293-4.195,0.878
	s-1.464,1.562-1.464,2.731c0,0.684,0.195,1.269,0.585,1.757c0.391,0.487,0.878,0.878,1.659,1.17
	c0.683,0.293,2.146,0.684,4.195,1.171l2.146,0.488c0.683,0.195,1.366,0.39,2.049,0.585c0.683,0.195,1.269,0.488,1.756,0.78
	c0.585,0.293,1.073,0.684,1.463,1.171c0.39,0.488,0.78,0.976,0.976,1.562C122.537,775.634,122.634,776.317,122.634,777.097
	L122.634,777.097z M146.537,771.829c0,2.341-0.488,4.39-1.366,6.146c-0.878,1.658-2.244,3.121-3.902,3.999
	c-1.756,0.977-3.805,1.464-5.854,1.366h-8.585V760.61h7.61c3.902,0,6.829,0.976,8.976,2.927
	C145.463,765.488,146.537,768.219,146.537,771.829L146.537,771.829z M143.415,771.829c0-2.83-0.781-4.976-2.341-6.439
	c-1.561-1.463-3.805-2.244-6.732-2.244h-4.39V781h5.073c1.658,0,3.122-0.391,4.39-1.073c1.268-0.781,2.341-1.854,2.927-3.122
	C143.122,775.341,143.415,773.683,143.415,771.829L143.415,771.829z M237.463,783.439h-3.122v-3.609h3.122V783.439z
	 M261.951,783.439h-3.415l-6.83-9.951l-7.024,9.951h-3.415l8.683-11.805l-8-10.927h3.415l6.341,8.976l6.146-8.976h3.415
	l-7.805,10.829L261.951,783.439z M285.073,771.829c0,2.341-0.488,4.39-1.366,6.146c-0.878,1.658-2.244,3.121-3.902,3.999
	c-1.756,0.977-3.805,1.464-5.854,1.366h-8.585V760.61h7.61c3.902,0,6.829,0.976,8.976,2.927
	C284,765.488,285.073,768.219,285.073,771.829L285.073,771.829z M281.951,771.829c0-2.83-0.781-4.976-2.342-6.439
	c-1.561-1.463-3.805-2.244-6.731-2.244h-4.39V781h5.073c1.658,0,3.122-0.391,4.39-1.073c1.268-0.781,2.341-1.854,2.927-3.122
	C281.658,775.341,281.951,773.683,281.951,771.829L281.951,771.829z M366.731,783.439h-3.122v-3.609h3.122V783.439z
	 M385.171,778.561c0,1.658-0.586,2.927-1.854,3.805c-1.269,0.878-3.024,1.366-5.269,1.366c-2.146,0-3.902-0.391-5.073-1.073
	c-1.171-0.78-2.049-1.951-2.342-3.415l2.537-0.487c0.195,0.878,0.78,1.658,1.561,2.049c0.78,0.39,1.854,0.683,3.22,0.683
	c1.464,0,2.536-0.195,3.22-0.683c0.683-0.488,1.073-1.171,1.073-2.049c0-0.683-0.195-1.269-0.684-1.659
	c-0.683-0.487-1.463-0.878-2.341-1.072l-2.049-0.586c-1.269-0.292-2.439-0.683-3.61-1.269c-0.683-0.39-1.268-0.878-1.658-1.561
	s-0.585-1.366-0.585-2.146c0-1.561,0.585-2.829,1.756-3.609c1.171-0.878,2.829-1.269,4.976-1.269c1.951,0,3.512,0.293,4.585,0.976
	c1.171,0.683,1.951,1.951,2.146,3.22l-2.634,0.292c-0.195-0.78-0.586-1.365-1.366-1.756c-0.878-0.487-1.854-0.683-2.829-0.683
	c-1.366,0-2.342,0.195-2.927,0.585c-0.586,0.391-0.976,1.073-0.976,1.854c0,0.488,0.098,0.879,0.39,1.269
	c0.293,0.391,0.684,0.586,1.171,0.78c0.488,0.195,1.562,0.488,3.22,0.976c1.561,0.391,2.634,0.781,3.317,1.073
	c0.683,0.293,1.171,0.684,1.561,1.073C384.78,776.219,385.269,777.39,385.171,778.561L385.171,778.561z M403.122,783.439h-3.415
	l-5.951-8l-2.146,1.756v6.244h-2.927v-24h2.927v15.024l7.708-8.487h3.414l-7.122,7.512L403.122,783.439z M420,775.243h-12.488
	c0,1.951,0.391,3.513,1.269,4.684c0.878,1.072,2.049,1.658,3.609,1.658c1.269,0,2.244-0.293,3.024-0.78
	c0.684-0.488,1.269-1.171,1.562-1.951l2.536,0.78c-1.073,2.731-3.414,4.098-7.122,4.098c-2.634,0-4.585-0.78-5.951-2.342
	c-1.365-1.561-2.049-3.805-2.049-6.829c0-2.927,0.684-5.073,2.049-6.634c1.366-1.562,3.317-2.342,5.854-2.342
	c5.17,0,7.707,3.122,7.707,9.269V775.243L420,775.243z M407.512,773.097h9.464c-0.195-1.854-0.586-3.219-1.464-4
	c-0.78-0.878-1.951-1.268-3.316-1.268c-1.464,0-2.537,0.487-3.415,1.463C408,770.268,407.512,771.634,407.512,773.097
	L407.512,773.097z M430.536,781.097v2.146c-0.976,0.293-1.951,0.391-2.927,0.391c-2.341,0-3.512-1.269-3.512-4v-11.707h-2.049
	v-2.146h2.146l0.878-3.902h1.951v3.902h3.22v2.146h-3.22v11.024c0,0.878,0.098,1.463,0.39,1.756
	c0.293,0.293,0.781,0.487,1.464,0.487C429.269,781.39,429.756,781.292,430.536,781.097L430.536,781.097z M435.22,774.561
	c0,2.342,0.39,4.098,1.073,5.171c0.78,1.171,1.854,1.658,3.316,1.658c1.073,0,1.951-0.293,2.635-0.878
	c0.78-0.683,1.171-1.561,1.268-2.634l2.927,0.194c-0.194,1.562-0.976,3.024-2.146,4c-1.269,1.073-2.927,1.562-4.586,1.464
	c-2.438,0-4.293-0.78-5.658-2.342c-1.269-1.561-1.951-3.805-1.951-6.731s0.683-5.171,1.951-6.731
	c1.269-1.562,3.122-2.342,5.561-2.342c1.757,0,3.317,0.487,4.488,1.366c1.171,0.976,2.049,2.341,2.243,3.805l-3.023,0.195
	c-0.098-0.878-0.488-1.659-1.171-2.342c-0.586-0.585-1.464-0.878-2.635-0.878c-1.561,0-2.634,0.487-3.316,1.561
	C435.512,770.17,435.22,772.121,435.22,774.561L435.22,774.561z M452.487,768.903L452.487,768.903
	c0.586-0.976,1.366-1.854,2.342-2.537c0.976-0.585,2.146-0.878,3.317-0.78c1.951,0,3.316,0.487,4.194,1.463
	c0.879,0.977,1.366,2.537,1.366,4.684v11.707h-2.927v-11.122c0-1.269-0.098-2.146-0.391-2.731c-0.194-0.585-0.585-1.073-1.072-1.366
	c-0.684-0.292-1.366-0.487-2.146-0.39c-1.366,0-2.439,0.487-3.317,1.463c-0.878,1.073-1.269,2.439-1.269,3.805v10.342h-2.927v-24
	h2.927v6.244c0,0.683,0,1.365-0.098,2.049C452.487,768.414,452.487,768.805,452.487,768.903L452.487,768.903z M545.951,783.439
	h-3.122v-3.609h3.122V783.439z M570.438,783.439h-3.414l-6.829-9.951l-7.024,9.951h-3.415l8.683-11.805l-8-10.927h3.415l6.342,8.976
	l6.146-8.976h3.415l-7.805,10.829L570.438,783.439z M584,762.854c-2.537,0-4.488,0.78-5.951,2.438
	c-1.366,1.659-2.146,3.805-2.146,6.635c0,2.829,0.78,5.072,2.146,6.731c1.463,1.658,3.707,2.634,5.951,2.536
	c3.22,0,5.658-1.561,7.22-4.683l2.536,1.269c-0.878,1.854-2.244,3.414-4,4.487s-3.805,1.562-5.951,1.562
	c-2.342,0-4.293-0.488-5.951-1.464s-3.024-2.342-3.805-4.098c-0.878-1.951-1.366-4.098-1.269-6.342c0-3.609,0.976-6.438,2.927-8.585
	s4.684-3.122,8.195-3.122c2.439,0,4.488,0.488,6.049,1.464c1.658,0.976,2.927,2.438,3.609,4.195l-2.927,0.976
	c-0.487-1.269-1.365-2.342-2.536-3.024C586.927,763.146,585.463,762.756,584,762.854L584,762.854z M614.146,763.146h-13.171v8.488
	h12.78v2.536h-12.78v9.269h-3.122v-22.731h16.293V763.146z M730.244,783.439h-3.61l-5.951-9.463h-7.122v9.463h-3.122v-22.731h10.732
	c2.536,0,4.585,0.585,5.951,1.756c1.463,1.171,2.244,2.927,2.146,4.78c0,1.659-0.488,3.122-1.464,4.293
	c-1.073,1.171-2.536,1.951-4.098,2.146L730.244,783.439z M726.244,767.146c0-1.365-0.488-2.341-1.366-3.024
	c-0.878-0.683-2.146-1.072-3.902-1.072h-7.317v8.39h7.513c1.658,0,2.927-0.391,3.805-1.171
	C725.756,769.585,726.341,768.414,726.244,767.146z M753.854,783.439h-3.122l-2.634-6.634h-10.439l-2.634,6.634h-3.22l9.366-22.731
	h3.512L753.854,783.439z M743.317,764.317l-0.488-1.365l-0.195,0.487c-0.293,0.878-0.683,2.049-1.171,3.415l-2.927,7.512h8.586
	l-2.927-7.512C744,766.073,743.707,765.292,743.317,764.317L743.317,764.317z M784,760.61l-6.731,22.731h-3.708l-4-14.438
	c-0.292-0.879-0.683-2.537-1.171-4.879l-0.683,3.122c-0.195,0.879-1.658,6.244-4.39,16.195h-3.708l-6.731-22.731h3.22l4.098,14.438
	c0.487,1.854,0.976,3.708,1.365,5.562c0.293-1.171,0.586-2.439,0.878-3.902c0.293-1.366,1.854-6.829,4.488-16.195h2.927l4,14.146
	c0.585,2.342,1.073,4.293,1.464,5.854l0.194-0.585l0.684-3.024c0.194-0.781,1.756-6.244,4.585-16.488L784,760.61z M898.536,783.439
	h-3.121l-2.635-6.634h-10.439l-2.634,6.634h-3.22l9.366-22.731h3.512L898.536,783.439z M888,764.317l-0.488-1.365l-0.194,0.487
	c-0.293,0.878-0.684,2.049-1.171,3.415l-2.927,7.512h8.585l-2.927-7.512C888.585,766.073,888.293,765.292,888,764.317L888,764.317z
	 M919.902,783.439h-3.707L904,764.024l0.098,1.562l0.098,2.731v15.122h-2.732v-22.731h3.61l12.39,19.512
	c-0.097-2.146-0.194-3.609-0.194-4.585v-14.927h2.829L919.902,783.439z M944.098,760.61l-8.78,13.366v9.463h-3.122v-9.463
	l-8.78-13.366h3.414l6.927,10.829l6.927-10.829H944.098z"/>
</svg>
